<svg height="512" width="512" xmlns="http://www.w3.org/2000/svg">
    <path d="M362.797 191.234c8.493-10.149 7.976-25.283-1.56-34.82a25.711 25.711 0 00-15.058-7.36 25.711 25.711 0 00-7.36-15.058c-10.088-10.088-26.445-10.088-36.533 0-7.8 7.801-9.564 19.346-5.302 28.846a25.884 25.884 0 00-5.077 3.951c-6.627 6.627-8.9 15.958-6.821 24.441z"
          fill="#fedf74"/>
    <path d="M238.754 164.956a24.058 24.058 0 00-.741 5.937c0 8.57 4.491 16.087 11.244 20.34h25.567c6.753-4.253 11.243-11.77 11.243-20.34 0-2.049-.258-4.038-.741-5.937 9.051-3.445 15.485-12.198 15.485-22.458 0-13.27-10.757-24.027-24.027-24.027a23.914 23.914 0 00-14.744 5.063 23.92 23.92 0 00-14.744-5.063c-13.27 0-24.027 10.757-24.027 24.027 0 10.26 6.434 19.013 15.485 22.458z"
          fill="#fed402"/>
    <path d="M181.632 171.347a24.04 24.04 0 001.011 5.897 23.939 23.939 0 0011.245 13.989h23.516c9.624-5.393 14.561-16.915 11.233-27.909a24.086 24.086 0 00-2.429-5.468c7.665-5.919 11.288-16.16 8.315-25.981-3.844-12.701-17.256-19.881-29.957-16.037a23.915 23.915 0 00-12.645 9.116 23.92 23.92 0 00-15.578-.575c-12.701 3.844-19.881 17.256-16.037 29.957 2.972 9.822 11.665 16.336 21.326 17.011z"
          fill="#fef0ae"/>
    <path d="M191.563 191.234c7.773-9.438 7.252-23.416-1.572-32.24-9.383-9.383-24.596-9.383-33.979 0-.436.436-.845.889-1.24 1.349-8.707-3.597-19.098-1.861-26.175 5.216-6.943 6.943-8.734 17.073-5.402 25.676h68.368z"
          fill="#fedf74"/>
    <path d="M145.571 165.558a23.907 23.907 0 018.498-5.476c-8.559-3.225-18.583-1.412-25.472 5.476-6.943 6.943-8.734 17.073-5.402 25.676h16.974c-3.332-8.603-1.541-18.733 5.402-25.676z"
          fill="#fed402"/>
    <path d="M257.229 191.234c7.773-9.438 7.252-23.416-1.572-32.24-9.383-9.383-24.596-9.383-33.979 0-.436.436-.845.889-1.24 1.349-8.707-3.597-19.098-1.861-26.175 5.216-6.943 6.943-8.734 17.073-5.402 25.676h68.368z"
          fill="#fff"/>
    <path d="M206.026 165.558a23.895 23.895 0 0111.121-6.302c-7.931-2-16.682.098-22.885 6.302-6.943 6.943-8.734 17.073-5.402 25.676h11.764c-3.331-8.603-1.541-18.733 5.402-25.676z"
          fill="#eaf6ff"/>
    <path d="M326.461 191.234a23.908 23.908 0 003.195-11.974c0-13.27-10.757-24.027-24.027-24.027a23.914 23.914 0 00-14.744 5.063 23.92 23.92 0 00-14.744-5.063c-13.27 0-24.027 10.757-24.027 24.027 0 4.361 1.164 8.449 3.195 11.974z"
          fill="#fef0ae"/>
    <path d="M283.563 156.421a23.935 23.935 0 00-7.422-1.188c-13.27 0-24.027 10.757-24.027 24.027 0 4.361 1.164 8.449 3.195 11.974h14.886A23.908 23.908 0 01267 179.26c0-10.663 6.949-19.699 16.563-22.839z"
          fill="#fedf74"/>
    <path d="M214.504 3.998c-11.063-7.328-25.972-4.299-33.299 6.764a23.919 23.919 0 00-3.921 15.088 23.914 23.914 0 00-12.362 9.497c-7.327 11.063-4.299 25.972 6.764 33.299 8.344 5.526 18.873 5.159 26.689-.099.479.372.97.734 1.484 1.075 11.063 7.327 25.972 4.299 33.299-6.764s4.299-25.972-6.764-33.299a23.933 23.933 0 00-1.569-.947c1.792-9.25-1.978-19.088-10.321-24.614z"
          fill="#fef0ae"/>
    <path d="M177.998 41.347a23.918 23.918 0 0112.362-9.497 23.913 23.913 0 013.921-15.088c5.216-7.876 14.274-11.675 23.052-10.569a24.125 24.125 0 00-2.829-2.195c-11.063-7.328-25.972-4.299-33.299 6.764a23.917 23.917 0 00-3.921 15.088 23.91 23.91 0 00-12.362 9.497c-7.327 11.063-4.299 25.972 6.764 33.299a23.907 23.907 0 0010.241 3.802c-8.695-7.831-10.585-21.052-3.929-31.101zM424.464 83.263c-2.642-13.004-15.325-21.405-28.329-18.763a23.921 23.921 0 00-13.441 7.896 23.912 23.912 0 00-15.457-2.026c-13.004 2.642-21.405 15.325-18.763 28.329 1.992 9.808 9.697 16.993 18.942 18.802.076.602.167 1.205.289 1.809 2.642 13.004 15.325 21.405 28.329 18.763s21.405-15.325 18.763-28.329a24.569 24.569 0 00-.439-1.779c7.808-5.272 12.099-14.894 10.106-24.702z"
          fill="#fedf74"/>
    <path d="M380.717 112.296a23.768 23.768 0 01-.289-1.809c-9.245-1.809-16.95-8.994-18.942-18.802-1.626-8.007.938-15.888 6.18-21.383-.143.026-.285.039-.428.068-13.004 2.642-21.405 15.325-18.763 28.329 1.992 9.808 9.697 16.993 18.942 18.802.076.602.167 1.205.289 1.809 2.642 13.004 15.325 21.405 28.329 18.763a23.91 23.91 0 0012.574-6.937c-12.849 2.368-25.28-5.982-27.892-18.84z"
          fill="#fed402"/>
    <circle cx="301.328" cy="55.115" fill="#fef0ae" r="18.543"/>
    <path d="M295.913 55.115c0-7.927 4.983-14.672 11.979-17.325a18.458 18.458 0 00-6.564-1.218c-10.241 0-18.543 8.302-18.543 18.543s8.302 18.543 18.543 18.543c2.315 0 4.521-.443 6.564-1.218-6.996-2.653-11.979-9.399-11.979-17.325z"
          fill="#fedf74"/>
    <circle cx="105.594" cy="106.624" fill="#fedf74" r="18.543"/>
    <path d="M100.913 106.624c0-7.789 4.807-14.444 11.612-17.191a18.47 18.47 0 00-6.932-1.352c-10.241 0-18.543 8.302-18.543 18.543s8.302 18.543 18.543 18.543a18.47 18.47 0 006.932-1.352c-6.804-2.747-11.612-9.403-11.612-17.191z"
          fill="#fed402"/>
    <path d="M113.757 224.374l23.925 202.802 2.943.428a724.412 724.412 0 00211.54-.428L376.6 224.374z"
          fill="#fb2b3a"/>
    <path d="M113.757 224.374l23.925 202.802h28.002l-23.925-202.802z" fill="#e41f2d"/>
    <path d="M307.027 428.176l14.21-203.802H169.125l13.914 203.802z" fill="#fff"/>
    <path d="M245.185 262.696c8.472 0 16.52 1.794 23.806 5.002l.962-42.325h-49.539l.942 42.335a58.93 58.93 0 0123.829-5.012zm20.159 165.48l1.163-51.151a58.972 58.972 0 01-21.321 3.977 58.964 58.964 0 01-21.397-4.007l1.139 51.181z"
          fill="#fb2b3a"/>
    <path d="M380.426 225.373H109.945c-9.704 0-17.57-7.866-17.57-17.57s7.866-17.57 17.57-17.57h270.481c9.704 0 17.57 7.866 17.57 17.57-.001 9.704-7.867 17.57-17.57 17.57z"
          fill="#eaf6ff"/>
    <path d="M131.865 207.804c0-9.703 7.866-17.57 17.57-17.57h-39.49c-9.703 0-17.57 7.866-17.57 17.57s7.866 17.57 17.57 17.57h39.49c-9.704-.001-17.57-7.867-17.57-17.57z"
          fill="#d8ecfe"/>
    <path d="M137.682 427.176l9.471 80.277a5.152 5.152 0 005.115 4.548h185.109a5.15 5.15 0 005.114-4.535l9.674-80.29z"
          fill="#fedf74"/>
    <path d="M175.127 507.452l-9.471-80.277h-27.974l9.471 80.277a5.152 5.152 0 005.115 4.548h27.974a5.15 5.15 0 01-5.115-4.548z"
          fill="#fed402"/>
    <circle cx="245.185" cy="321.849" fill="#fedf74" r="59.153"/>
    <path d="M219.596 321.849c0-26.838 17.879-49.487 42.371-56.723a59.14 59.14 0 00-16.782-2.43c-32.669 0-59.153 26.484-59.153 59.153s26.484 59.153 59.153 59.153c5.831 0 11.46-.858 16.782-2.43-24.492-7.236-42.371-29.885-42.371-56.723z"
          fill="#fed402"/>
</svg>
